<mxfile host="app.diagrams.net" agent="Mozilla/5.0 (Windows NT 10.0; Win64; x64) AppleWebKit/537.36 (KHTML, like Gecko) Chrome/126.0.0.0 Safari/537.36" version="24.7.17">
  <diagram name="第 1 页" id="jo7vAFF6w6Xzo0wv7VEB">
    <mxGraphModel dx="1325" dy="788" grid="1" gridSize="10" guides="1" tooltips="1" connect="1" arrows="1" fold="1" page="0" pageScale="1" pageWidth="827" pageHeight="1169" math="0" shadow="0">
      <root>
        <mxCell id="0" />
        <mxCell id="1" parent="0" />
        <mxCell id="r8hzpXox8yHPrLNPoh3o-75" value="" style="rounded=1;whiteSpace=wrap;html=1;" vertex="1" parent="1">
          <mxGeometry x="610" y="190" width="220" height="130" as="geometry" />
        </mxCell>
        <mxCell id="r8hzpXox8yHPrLNPoh3o-1" value="" style="rounded=1;whiteSpace=wrap;html=1;" vertex="1" parent="1">
          <mxGeometry x="250" y="190" width="340" height="130" as="geometry" />
        </mxCell>
        <mxCell id="r8hzpXox8yHPrLNPoh3o-2" value="&lt;b&gt;&lt;i&gt;&lt;font style=&quot;font-size: 16px;&quot;&gt;ImageMergeController&lt;/font&gt;&lt;/i&gt;&lt;/b&gt;" style="text;html=1;align=center;verticalAlign=middle;whiteSpace=wrap;rounded=0;" vertex="1" parent="1">
          <mxGeometry x="420" y="190" width="60" height="30" as="geometry" />
        </mxCell>
        <mxCell id="r8hzpXox8yHPrLNPoh3o-6" value="" style="group;fontColor=#07ab0a;" vertex="1" connectable="0" parent="1">
          <mxGeometry x="290" y="225" width="120" height="60" as="geometry" />
        </mxCell>
        <mxCell id="r8hzpXox8yHPrLNPoh3o-4" value="" style="rounded=1;whiteSpace=wrap;html=1;" vertex="1" parent="r8hzpXox8yHPrLNPoh3o-6">
          <mxGeometry width="120" height="60" as="geometry" />
        </mxCell>
        <mxCell id="r8hzpXox8yHPrLNPoh3o-3" value="/createTask" style="text;whiteSpace=wrap;fontColor=#03a01d;" vertex="1" parent="r8hzpXox8yHPrLNPoh3o-6">
          <mxGeometry x="30" width="70" height="25" as="geometry" />
        </mxCell>
        <mxCell id="r8hzpXox8yHPrLNPoh3o-5" value="&lt;b&gt;initMergeTask()&lt;/b&gt;" style="text;html=1;align=center;verticalAlign=middle;whiteSpace=wrap;rounded=0;" vertex="1" parent="r8hzpXox8yHPrLNPoh3o-6">
          <mxGeometry x="35" y="25" width="60" height="30" as="geometry" />
        </mxCell>
        <mxCell id="r8hzpXox8yHPrLNPoh3o-9" value="" style="group" vertex="1" connectable="0" parent="1">
          <mxGeometry x="440" y="225" width="130" height="65" as="geometry" />
        </mxCell>
        <mxCell id="r8hzpXox8yHPrLNPoh3o-10" value="" style="rounded=1;whiteSpace=wrap;html=1;" vertex="1" parent="r8hzpXox8yHPrLNPoh3o-9">
          <mxGeometry width="130" height="65" as="geometry" />
        </mxCell>
        <mxCell id="r8hzpXox8yHPrLNPoh3o-11" value="/mergeImage" style="text;whiteSpace=wrap;fontColor=#00b31e;" vertex="1" parent="r8hzpXox8yHPrLNPoh3o-9">
          <mxGeometry x="32.5" width="75.83333333333333" height="27.083333333333332" as="geometry" />
        </mxCell>
        <mxCell id="r8hzpXox8yHPrLNPoh3o-12" value="&lt;b&gt;mergeImage()&lt;/b&gt;" style="text;html=1;align=center;verticalAlign=middle;whiteSpace=wrap;rounded=0;" vertex="1" parent="r8hzpXox8yHPrLNPoh3o-9">
          <mxGeometry x="37.916666666666664" y="27.083333333333332" width="65" height="32.5" as="geometry" />
        </mxCell>
        <mxCell id="r8hzpXox8yHPrLNPoh3o-17" style="edgeStyle=orthogonalEdgeStyle;rounded=0;orthogonalLoop=1;jettySize=auto;html=1;exitX=0.25;exitY=1;exitDx=0;exitDy=0;entryX=0.5;entryY=0;entryDx=0;entryDy=0;" edge="1" parent="1" source="r8hzpXox8yHPrLNPoh3o-14" target="r8hzpXox8yHPrLNPoh3o-15">
          <mxGeometry relative="1" as="geometry" />
        </mxCell>
        <mxCell id="r8hzpXox8yHPrLNPoh3o-18" style="edgeStyle=orthogonalEdgeStyle;rounded=0;orthogonalLoop=1;jettySize=auto;html=1;exitX=0.75;exitY=1;exitDx=0;exitDy=0;entryX=0.5;entryY=0;entryDx=0;entryDy=0;" edge="1" parent="1" source="r8hzpXox8yHPrLNPoh3o-14" target="r8hzpXox8yHPrLNPoh3o-16">
          <mxGeometry relative="1" as="geometry" />
        </mxCell>
        <mxCell id="r8hzpXox8yHPrLNPoh3o-14" value="&lt;span style=&quot;text-align: left;&quot;&gt;initMergeTask()&lt;/span&gt;" style="rounded=1;whiteSpace=wrap;html=1;fontStyle=1" vertex="1" parent="1">
          <mxGeometry x="204" y="370" width="140" height="50" as="geometry" />
        </mxCell>
        <mxCell id="r8hzpXox8yHPrLNPoh3o-15" value="appendFileInfos()" style="rounded=1;whiteSpace=wrap;html=1;fillColor=#dae8fc;gradientColor=#7ea6e0;strokeColor=#6c8ebf;" vertex="1" parent="1">
          <mxGeometry x="90" y="470" width="120" height="60" as="geometry" />
        </mxCell>
        <mxCell id="r8hzpXox8yHPrLNPoh3o-16" value="&amp;nbsp;createMergeTask()" style="rounded=1;whiteSpace=wrap;html=1;" vertex="1" parent="1">
          <mxGeometry x="250" y="500" width="120" height="60" as="geometry" />
        </mxCell>
        <mxCell id="r8hzpXox8yHPrLNPoh3o-19" value="是否开启自动分析？" style="text;html=1;align=center;verticalAlign=middle;whiteSpace=wrap;rounded=0;" vertex="1" parent="1">
          <mxGeometry x="315" y="450" width="70" height="30" as="geometry" />
        </mxCell>
        <mxCell id="r8hzpXox8yHPrLNPoh3o-20" style="edgeStyle=orthogonalEdgeStyle;rounded=0;orthogonalLoop=1;jettySize=auto;html=1;exitX=0.5;exitY=1;exitDx=0;exitDy=0;entryX=0.5;entryY=0;entryDx=0;entryDy=0;" edge="1" parent="1" source="r8hzpXox8yHPrLNPoh3o-4" target="r8hzpXox8yHPrLNPoh3o-14">
          <mxGeometry relative="1" as="geometry">
            <Array as="points">
              <mxPoint x="350" y="340" />
              <mxPoint x="274" y="340" />
            </Array>
          </mxGeometry>
        </mxCell>
        <mxCell id="r8hzpXox8yHPrLNPoh3o-21" value="把请求合并的图像文件信息落库在&lt;div&gt;&lt;i&gt;&lt;font color=&quot;#0008ff&quot;&gt;sa_auto_task_file_info&lt;/font&gt;&lt;/i&gt;&lt;br&gt;&lt;/div&gt;" style="text;html=1;align=center;verticalAlign=middle;resizable=0;points=[];autosize=1;strokeColor=none;fillColor=none;" vertex="1" parent="1">
          <mxGeometry x="40" y="540" width="200" height="40" as="geometry" />
        </mxCell>
        <mxCell id="r8hzpXox8yHPrLNPoh3o-33" style="edgeStyle=orthogonalEdgeStyle;rounded=0;orthogonalLoop=1;jettySize=auto;html=1;exitX=0.5;exitY=1;exitDx=0;exitDy=0;" edge="1" parent="1" source="r8hzpXox8yHPrLNPoh3o-22" target="r8hzpXox8yHPrLNPoh3o-24">
          <mxGeometry relative="1" as="geometry" />
        </mxCell>
        <mxCell id="r8hzpXox8yHPrLNPoh3o-22" value="startMergeImageTask()" style="rounded=1;whiteSpace=wrap;html=1;fillColor=#f8cecc;gradientColor=#ea6b66;strokeColor=#b85450;" vertex="1" parent="1">
          <mxGeometry x="250" y="740" width="760" height="70" as="geometry" />
        </mxCell>
        <mxCell id="r8hzpXox8yHPrLNPoh3o-34" style="edgeStyle=orthogonalEdgeStyle;rounded=0;orthogonalLoop=1;jettySize=auto;html=1;exitX=0;exitY=0.5;exitDx=0;exitDy=0;entryX=1;entryY=0.5;entryDx=0;entryDy=0;" edge="1" parent="1" source="r8hzpXox8yHPrLNPoh3o-24" target="r8hzpXox8yHPrLNPoh3o-26">
          <mxGeometry relative="1" as="geometry" />
        </mxCell>
        <mxCell id="r8hzpXox8yHPrLNPoh3o-44" style="edgeStyle=orthogonalEdgeStyle;rounded=0;orthogonalLoop=1;jettySize=auto;html=1;exitX=0.5;exitY=1;exitDx=0;exitDy=0;entryX=0.5;entryY=0;entryDx=0;entryDy=0;" edge="1" parent="1" source="r8hzpXox8yHPrLNPoh3o-24" target="r8hzpXox8yHPrLNPoh3o-43">
          <mxGeometry relative="1" as="geometry" />
        </mxCell>
        <mxCell id="r8hzpXox8yHPrLNPoh3o-24" value="&lt;b&gt;检查&lt;/b&gt;&lt;div&gt;&lt;i&gt;&lt;font color=&quot;#1100fa&quot;&gt;sa_image_merge_task&lt;/font&gt;&lt;/i&gt;&lt;br&gt;&lt;/div&gt;&lt;div&gt;中活跃的任务（&lt;i&gt;&lt;font color=&quot;#d400f0&quot;&gt;ANASYSIS&lt;/font&gt;&lt;/i&gt;）&lt;/div&gt;&lt;div&gt;是否超过既定的数目&lt;/div&gt;" style="rounded=1;whiteSpace=wrap;html=1;" vertex="1" parent="1">
          <mxGeometry x="562.5" y="900" width="135" height="100" as="geometry" />
        </mxCell>
        <mxCell id="r8hzpXox8yHPrLNPoh3o-26" value="加入排队队列&lt;div&gt;&lt;i&gt;&lt;font color=&quot;#001df5&quot;&gt;sa_queue_task&lt;/font&gt;&lt;/i&gt;&lt;/div&gt;" style="rounded=1;whiteSpace=wrap;html=1;fillColor=#dae8fc;gradientColor=#7ea6e0;strokeColor=#6c8ebf;" vertex="1" parent="1">
          <mxGeometry x="357.5" y="925" width="135" height="50" as="geometry" />
        </mxCell>
        <mxCell id="r8hzpXox8yHPrLNPoh3o-29" value="超过数目" style="text;html=1;align=center;verticalAlign=middle;whiteSpace=wrap;rounded=0;" vertex="1" parent="1">
          <mxGeometry x="505" y="925" width="60" height="30" as="geometry" />
        </mxCell>
        <mxCell id="r8hzpXox8yHPrLNPoh3o-31" value="&lt;div&gt;研究院图像拼接&lt;/div&gt;&lt;div&gt;uav_image_stitching_api&lt;br&gt;&lt;/div&gt;" style="rounded=1;whiteSpace=wrap;html=1;fillColor=#f5f5f5;gradientColor=#b3b3b3;strokeColor=#666666;" vertex="1" parent="1">
          <mxGeometry x="350" y="1050" width="155" height="50" as="geometry" />
        </mxCell>
        <mxCell id="r8hzpXox8yHPrLNPoh3o-35" value="" style="rounded=1;whiteSpace=wrap;html=1;fillColor=#f8cecc;gradientColor=#ea6b66;strokeColor=#b85450;" vertex="1" parent="1">
          <mxGeometry x="1180" y="130" width="90" height="30" as="geometry" />
        </mxCell>
        <mxCell id="r8hzpXox8yHPrLNPoh3o-36" value="关键方法" style="text;html=1;align=center;verticalAlign=middle;whiteSpace=wrap;rounded=0;" vertex="1" parent="1">
          <mxGeometry x="1280" y="130" width="60" height="30" as="geometry" />
        </mxCell>
        <mxCell id="r8hzpXox8yHPrLNPoh3o-38" value="" style="rounded=1;whiteSpace=wrap;html=1;fillColor=#f5f5f5;gradientColor=#b3b3b3;strokeColor=#666666;" vertex="1" parent="1">
          <mxGeometry x="1180" y="180" width="90" height="30" as="geometry" />
        </mxCell>
        <mxCell id="r8hzpXox8yHPrLNPoh3o-39" value="外部接口" style="text;html=1;align=center;verticalAlign=middle;whiteSpace=wrap;rounded=0;" vertex="1" parent="1">
          <mxGeometry x="1280" y="180" width="60" height="30" as="geometry" />
        </mxCell>
        <mxCell id="r8hzpXox8yHPrLNPoh3o-40" value="" style="rounded=1;whiteSpace=wrap;html=1;fillColor=#dae8fc;gradientColor=#7ea6e0;strokeColor=#6c8ebf;" vertex="1" parent="1">
          <mxGeometry x="1180" y="230" width="90" height="30" as="geometry" />
        </mxCell>
        <mxCell id="r8hzpXox8yHPrLNPoh3o-41" value="落库操作" style="text;html=1;align=center;verticalAlign=middle;whiteSpace=wrap;rounded=0;" vertex="1" parent="1">
          <mxGeometry x="1280" y="230" width="60" height="30" as="geometry" />
        </mxCell>
        <mxCell id="r8hzpXox8yHPrLNPoh3o-43" value="调用算法&lt;div&gt;保存任务执行状态&lt;/div&gt;" style="rounded=1;whiteSpace=wrap;html=1;fillColor=#dae8fc;gradientColor=#7ea6e0;strokeColor=#6c8ebf;" vertex="1" parent="1">
          <mxGeometry x="555" y="1050" width="150" height="60" as="geometry" />
        </mxCell>
        <mxCell id="r8hzpXox8yHPrLNPoh3o-45" style="edgeStyle=orthogonalEdgeStyle;rounded=0;orthogonalLoop=1;jettySize=auto;html=1;exitX=0;exitY=0.25;exitDx=0;exitDy=0;entryX=1.016;entryY=0.304;entryDx=0;entryDy=0;entryPerimeter=0;" edge="1" parent="1" source="r8hzpXox8yHPrLNPoh3o-43" target="r8hzpXox8yHPrLNPoh3o-31">
          <mxGeometry relative="1" as="geometry" />
        </mxCell>
        <mxCell id="r8hzpXox8yHPrLNPoh3o-46" style="edgeStyle=orthogonalEdgeStyle;rounded=0;orthogonalLoop=1;jettySize=auto;html=1;exitX=1;exitY=0.75;exitDx=0;exitDy=0;entryX=-0.015;entryY=0.619;entryDx=0;entryDy=0;entryPerimeter=0;" edge="1" parent="1" source="r8hzpXox8yHPrLNPoh3o-31" target="r8hzpXox8yHPrLNPoh3o-43">
          <mxGeometry relative="1" as="geometry" />
        </mxCell>
        <mxCell id="r8hzpXox8yHPrLNPoh3o-57" style="edgeStyle=orthogonalEdgeStyle;rounded=0;orthogonalLoop=1;jettySize=auto;html=1;exitX=0.5;exitY=1;exitDx=0;exitDy=0;entryX=0.5;entryY=0;entryDx=0;entryDy=0;" edge="1" parent="1" source="r8hzpXox8yHPrLNPoh3o-48" target="r8hzpXox8yHPrLNPoh3o-56">
          <mxGeometry relative="1" as="geometry" />
        </mxCell>
        <mxCell id="r8hzpXox8yHPrLNPoh3o-48" value="&lt;span style=&quot;text-wrap: nowrap;&quot;&gt;mergeImage()&lt;/span&gt;" style="rounded=1;whiteSpace=wrap;html=1;fontStyle=1" vertex="1" parent="1">
          <mxGeometry x="435" y="370" width="140" height="50" as="geometry" />
        </mxCell>
        <mxCell id="r8hzpXox8yHPrLNPoh3o-49" style="edgeStyle=orthogonalEdgeStyle;rounded=0;orthogonalLoop=1;jettySize=auto;html=1;exitX=0.5;exitY=1;exitDx=0;exitDy=0;entryX=0.5;entryY=0;entryDx=0;entryDy=0;" edge="1" parent="1" source="r8hzpXox8yHPrLNPoh3o-10" target="r8hzpXox8yHPrLNPoh3o-48">
          <mxGeometry relative="1" as="geometry" />
        </mxCell>
        <mxCell id="r8hzpXox8yHPrLNPoh3o-50" value="&amp;lt;startMergeImageTask&amp;gt; taskId: {}" style="text;html=1;align=center;verticalAlign=middle;resizable=0;points=[];autosize=1;strokeColor=none;fillColor=none;fontColor=#05ad21;" vertex="1" parent="1">
          <mxGeometry y="380" width="200" height="30" as="geometry" />
        </mxCell>
        <mxCell id="r8hzpXox8yHPrLNPoh3o-55" value="&lt;span style=&quot;color: rgb(0, 209, 42); font-family: Helvetica; font-size: 12px; font-style: normal; font-variant-ligatures: normal; font-variant-caps: normal; font-weight: 400; letter-spacing: normal; orphans: 2; text-align: left; text-indent: 0px; text-transform: none; widows: 2; word-spacing: 0px; -webkit-text-stroke-width: 0px; white-space: normal; background-color: rgb(255, 255, 255); text-decoration-thickness: initial; text-decoration-style: initial; text-decoration-color: initial; display: inline !important; float: none;&quot;&gt;开启影像合并任务：{}&lt;/span&gt;" style="text;whiteSpace=wrap;html=1;" vertex="1" parent="1">
          <mxGeometry x="375" y="340" width="150" height="40" as="geometry" />
        </mxCell>
        <mxCell id="r8hzpXox8yHPrLNPoh3o-59" style="edgeStyle=orthogonalEdgeStyle;rounded=0;orthogonalLoop=1;jettySize=auto;html=1;exitX=0.5;exitY=1;exitDx=0;exitDy=0;entryX=0.5;entryY=0;entryDx=0;entryDy=0;" edge="1" parent="1" source="r8hzpXox8yHPrLNPoh3o-56" target="r8hzpXox8yHPrLNPoh3o-58">
          <mxGeometry relative="1" as="geometry" />
        </mxCell>
        <mxCell id="r8hzpXox8yHPrLNPoh3o-56" value="从saImageAlbum中找到指定id的album" style="rounded=1;whiteSpace=wrap;html=1;" vertex="1" parent="1">
          <mxGeometry x="435" y="500" width="140" height="60" as="geometry" />
        </mxCell>
        <mxCell id="r8hzpXox8yHPrLNPoh3o-58" value="装配imageMergeTask和saAutoTask" style="rounded=1;whiteSpace=wrap;html=1;" vertex="1" parent="1">
          <mxGeometry x="445" y="610" width="120" height="60" as="geometry" />
        </mxCell>
        <mxCell id="r8hzpXox8yHPrLNPoh3o-65" style="edgeStyle=orthogonalEdgeStyle;rounded=0;orthogonalLoop=1;jettySize=auto;html=1;exitX=0.5;exitY=1;exitDx=0;exitDy=0;entryX=0.336;entryY=-0.003;entryDx=0;entryDy=0;entryPerimeter=0;" edge="1" parent="1" source="r8hzpXox8yHPrLNPoh3o-58" target="r8hzpXox8yHPrLNPoh3o-22">
          <mxGeometry relative="1" as="geometry" />
        </mxCell>
        <mxCell id="r8hzpXox8yHPrLNPoh3o-66" style="edgeStyle=orthogonalEdgeStyle;rounded=0;orthogonalLoop=1;jettySize=auto;html=1;exitX=0.5;exitY=1;exitDx=0;exitDy=0;entryX=0.079;entryY=-0.004;entryDx=0;entryDy=0;entryPerimeter=0;" edge="1" parent="1" source="r8hzpXox8yHPrLNPoh3o-16" target="r8hzpXox8yHPrLNPoh3o-22">
          <mxGeometry relative="1" as="geometry">
            <mxPoint x="310" y="730" as="targetPoint" />
          </mxGeometry>
        </mxCell>
        <mxCell id="r8hzpXox8yHPrLNPoh3o-67" value="&lt;span style=&quot;text-wrap: nowrap;&quot;&gt;exec()&lt;/span&gt;" style="rounded=1;whiteSpace=wrap;html=1;fontStyle=1" vertex="1" parent="1">
          <mxGeometry x="1040" y="370" width="90" height="50" as="geometry" />
        </mxCell>
        <mxCell id="r8hzpXox8yHPrLNPoh3o-80" style="edgeStyle=orthogonalEdgeStyle;rounded=0;orthogonalLoop=1;jettySize=auto;html=1;exitX=0.5;exitY=1;exitDx=0;exitDy=0;entryX=0.5;entryY=0;entryDx=0;entryDy=0;" edge="1" parent="1" source="r8hzpXox8yHPrLNPoh3o-68" target="r8hzpXox8yHPrLNPoh3o-79">
          <mxGeometry relative="1" as="geometry" />
        </mxCell>
        <mxCell id="r8hzpXox8yHPrLNPoh3o-68" value="&lt;span style=&quot;text-wrap: nowrap;&quot;&gt;redoTask&lt;/span&gt;&lt;span style=&quot;text-wrap: nowrap; background-color: initial;&quot;&gt;()&lt;/span&gt;" style="rounded=1;whiteSpace=wrap;html=1;fontStyle=1" vertex="1" parent="1">
          <mxGeometry x="670" y="370" width="90" height="50" as="geometry" />
        </mxCell>
        <mxCell id="r8hzpXox8yHPrLNPoh3o-70" value="" style="group" vertex="1" connectable="0" parent="1">
          <mxGeometry x="650" y="230" width="130" height="65" as="geometry" />
        </mxCell>
        <mxCell id="r8hzpXox8yHPrLNPoh3o-71" value="" style="rounded=1;whiteSpace=wrap;html=1;" vertex="1" parent="r8hzpXox8yHPrLNPoh3o-70">
          <mxGeometry width="130" height="65" as="geometry" />
        </mxCell>
        <mxCell id="r8hzpXox8yHPrLNPoh3o-72" value="/redo" style="text;whiteSpace=wrap;fontColor=#00b31e;" vertex="1" parent="r8hzpXox8yHPrLNPoh3o-70">
          <mxGeometry x="54.17" width="35.83" height="27.08" as="geometry" />
        </mxCell>
        <mxCell id="r8hzpXox8yHPrLNPoh3o-73" value="&lt;b&gt;redoTask()&lt;/b&gt;" style="text;html=1;align=center;verticalAlign=middle;whiteSpace=wrap;rounded=0;" vertex="1" parent="r8hzpXox8yHPrLNPoh3o-70">
          <mxGeometry x="32.49666666666666" y="27.083333333333332" width="65" height="32.5" as="geometry" />
        </mxCell>
        <mxCell id="r8hzpXox8yHPrLNPoh3o-76" value="&lt;b&gt;&lt;i&gt;&lt;font style=&quot;font-size: 16px;&quot;&gt;AutoTaskController&lt;/font&gt;&lt;/i&gt;&lt;/b&gt;" style="text;html=1;align=center;verticalAlign=middle;whiteSpace=wrap;rounded=0;" vertex="1" parent="1">
          <mxGeometry x="695" y="195" width="60" height="30" as="geometry" />
        </mxCell>
        <mxCell id="r8hzpXox8yHPrLNPoh3o-77" style="edgeStyle=orthogonalEdgeStyle;rounded=0;orthogonalLoop=1;jettySize=auto;html=1;exitX=0.5;exitY=1;exitDx=0;exitDy=0;" edge="1" parent="1" source="r8hzpXox8yHPrLNPoh3o-71" target="r8hzpXox8yHPrLNPoh3o-68">
          <mxGeometry relative="1" as="geometry" />
        </mxCell>
        <mxCell id="r8hzpXox8yHPrLNPoh3o-79" value="查看传入的TaskId是否存在且有效，重新设置为&lt;i style=&quot;&quot;&gt;&lt;font color=&quot;#bb00ff&quot;&gt;Handing&lt;/font&gt;&lt;/i&gt;状态" style="rounded=1;whiteSpace=wrap;html=1;" vertex="1" parent="1">
          <mxGeometry x="645" y="450" width="140" height="60" as="geometry" />
        </mxCell>
        <mxCell id="r8hzpXox8yHPrLNPoh3o-81" value="注意，无论其为何种状态" style="text;html=1;align=center;verticalAlign=middle;whiteSpace=wrap;rounded=0;" vertex="1" parent="1">
          <mxGeometry x="800" y="460" width="70" height="30" as="geometry" />
        </mxCell>
        <mxCell id="r8hzpXox8yHPrLNPoh3o-82" value="根据任务的TYPE，获得任务处理器，处理任务" style="rounded=1;whiteSpace=wrap;html=1;" vertex="1" parent="1">
          <mxGeometry x="645" y="540" width="140" height="60" as="geometry" />
        </mxCell>
        <mxCell id="r8hzpXox8yHPrLNPoh3o-83" value="autoTaskServiceFactory" style="rounded=1;whiteSpace=wrap;html=1;" vertex="1" parent="1">
          <mxGeometry x="890" y="540" width="160" height="60" as="geometry" />
        </mxCell>
      </root>
    </mxGraphModel>
  </diagram>
</mxfile>
